[img]http://img412.imageshack.us/img412/5232/sitterver2.jpg[/img]
[code]
The Sitter 2011 720p CAM Xvid-26K

Imdb: 
http://www.imdb.com/title/tt1366344/

Plot:
A comedy about a college student on suspension who is coaxed into babysitting the kids next door, though he is fully unprepared for the wild night ahead of him.

Sources:
UNKNOWN! thnxs bud!

Notes:
Encoded the video added a few filters to make it look nice :)

Greetz:
Xtreme Encode|FYA|ILLUMANTI|CM8|RX|VISION|HDSCENE|NIGHTMAREZ|xTriLL|DTRG|CRYS|REMIXHD|BIDA
To all the people who have helped me :P you know who you are

Anything to offer email us @: 26k@hushmail.me

Video
ID                                       : 0
Format                                   : MPEG-4 Visual
Format profile                           : Advanced Simple@L5
Format settings, BVOP                    : 2
Format settings, QPel                    : No
Format settings, GMC                     : No warppoints
Format settings, Matrix                  : Default (H.263)
Codec ID                                 : XVID
Codec ID/Hint                            : XviD
Duration                                 : 1h 16mn
Bit rate                                 : 1 900 Kbps
Width                                    : 1 280 pixels
Height                                   : 720 pixels
Display aspect ratio                     : 16:9
Frame rate                               : 29.970 fps
Color space                              : YUV
Chroma subsampling                       : 4:2:0
Bit depth                                : 8 bits
Scan type                                : Progressive
Compression mode                         : Lossy
Bits/(Pixel*Frame)                       : 0.069
Stream size                              : 1.02 GiB (88%)
Writing library                          : XviD 63

Audio
ID                                       : 1
Format                                   : AC-3
Format/Info                              : Audio Coding 3
Mode extension                           : CM (complete main)
Codec ID                                 : 2000
Duration                                 : 1h 16mn
Bit rate mode                            : Constant
Bit rate                                 : 256 Kbps
Channel(s)                               : 2 channels
Channel positions                        : Front: L R
Sampling rate                            : 48.0 KHz
Bit depth                                : 16 bits
Compression mode                         : Lossy
Stream size                              : 141 MiB (12%)
Alignment                                : Aligned on interleaves
Interleave, duration                     : 33 ms (1.00 video frame)

[/code]
Screens:
[img]http://img405.imageshack.us/img405/605/vlcsnap2011122214h44m51.png[/img]
[img]http://img256.imageshack.us/img256/3946/vlcsnap2011122214h44m57.png[/img]
[img]http://img841.imageshack.us/img841/1465/vlcsnap2011122214h45m01.png[/img]
[img]http://img21.imageshack.us/img21/5251/vlcsnap2011122214h45m07.png[/img]
[img]http://img815.imageshack.us/img815/6760/vlcsnap2011122214h45m12.png[/img]


[img]http://img851.imageshack.us/img851/5503/26ks.jpg[/img]#
Thank you smallz for banner!